<?xml version="1.0" encoding="utf-8"?>
<!-- Generator: Adobe Illustrator 16.0.0, SVG Export Plug-In . SVG Version: 6.00 Build 0)  -->
<!DOCTYPE svg PUBLIC "-//W3C//DTD SVG 1.1//EN" "http://www.w3.org/Graphics/SVG/1.1/DTD/svg11.dtd">
<svg version="1.1" id="图层_1" xmlns="http://www.w3.org/2000/svg" xmlns:xlink="http://www.w3.org/1999/xlink" x="0px" y="0px"
	 style="height: 30px; width: 88.57px;" viewBox="0 0 389.859 132.051" enable-background="new 0 0 389.859 132.051"
	 xml:space="preserve">
<g>
	<path fill="#00A0FF" d="M105.678,13.272L105.678,13.272L105.678,13.272L105.678,13.272L105.678,13.272
		c-2.473-1.861-5.034-3.52-7.664-4.982c-1.904-1.06-4.295-0.564-5.604,1.177L75.918,31.379l-1.176,1.563
		c-1.786,2.373-4.638,3.665-7.605,3.529c-1.082-0.049-2.164-0.039-3.242,0.029c-8.289,0.524-16.308,4.524-21.694,11.681
		c-4.33,5.753-6.229,12.576-5.879,19.245c0.063,1.201,0.757,2.298,1.851,2.796c2.27,1.032,4.017,3.137,4.454,5.83
		c0.618,3.809-1.722,7.551-5.418,8.659c-4.357,1.306-8.832-1.363-9.814-5.725c-0.532-2.362,0.079-4.711,1.463-6.479
		c0.768-0.981,1.154-2.203,1.044-3.444c-0.758-8.552,1.52-17.402,7.09-24.802c7.026-9.334,17.717-14.274,28.562-14.337
		c2.09-0.013,4.052-1.012,5.309-2.682L86.051,7.064c1.189-1.579,0.421-3.848-1.476-4.405c-25.43-7.46-53.905,0.935-70.96,23.146
		C-8.484,54.587-3.114,96.084,25.602,118.268c2.687,2.076,5.482,3.909,8.36,5.508c1.893,1.052,4.274,0.537,5.577-1.193l16.492-21.91
		l1.176-1.563c1.786-2.373,4.638-3.665,7.605-3.529c1.082,0.05,2.164,0.039,3.242-0.028c8.289-0.525,16.308-4.525,21.694-11.682
		c4.33-5.753,6.229-12.575,5.879-19.245c-0.063-1.2-0.757-2.298-1.851-2.796c-2.27-1.031-4.017-3.137-4.454-5.83
		c-0.618-3.809,1.722-7.551,5.418-8.657c4.357-1.307,8.832,1.362,9.814,5.724c0.532,2.362-0.079,4.711-1.463,6.48
		c-0.768,0.98-1.154,2.202-1.044,3.443c0.758,8.553-1.52,17.402-7.09,24.803c-7.026,9.334-17.717,14.273-28.562,14.337
		c-2.09,0.012-4.052,1.011-5.309,2.681l-15.187,20.177c-1.18,1.568-0.439,3.842,1.444,4.396
		c25.633,7.534,54.368-1.045,71.384-23.652C140.653,76.595,134.813,35.2,105.678,13.272z"/>
	<g>
		<path fill="#00A0FF" d="M214.652,31.307l-0.001-1.567c-0.001-1.133-0.92-2.052-2.054-2.052h-51.424
			c-1.134,0-2.053,0.919-2.053,2.053v3.138c0,1.134,0.919,2.053,2.053,2.053h43.629c1.255,0,2.222,1.106,2.034,2.348
			c-1.224,8.113-5.061,23.285-17.051,37.854c-0.847,1.028-2.419,1.011-3.241-0.039c-10.032-12.828-13.119-25.98-13.962-30.826
			c-0.184-1.061-1.166-1.792-2.237-1.678l-1.643,0.174l-1.449,0.151c-1.188,0.124-2.025,1.228-1.808,2.402
			c1.027,5.559,4.772,20.841,16.549,35.389c0.683,0.843,0.625,2.075-0.175,2.81c-14.336,13.149-27.229,16.031-31.841,16.657
			c-1.027,0.14-1.795,1.009-1.789,2.046l0.015,3.169c0.006,1.22,1.065,2.174,2.276,2.032c5.483-0.646,20.115-3.743,36.283-18.613
			c0.8-0.734,2.015-0.734,2.811,0.003c7.813,7.235,17.799,14.211,31.266,18.495c1.091,0.347,2.259-0.287,2.582-1.385l0.887-3.007
			c0.318-1.078-0.297-2.198-1.366-2.539c-12.252-3.908-21.285-10.2-28.378-16.651c-0.818-0.744-0.859-2.006-0.142-2.846
			C214.408,57.48,214.654,32.444,214.652,31.307z"/>
		<path fill="#00A0FF" d="M250.349,24.404h-3.137c-1.134,0-2.053,0.919-2.053,2.054v10.999c0,1.134-0.919,2.053-2.053,2.053h-7.38
			c-1.134,0-2.053,0.919-2.053,2.053v3.137c0,1.135,0.919,2.054,2.053,2.054h7.38c1.134,0,2.053,0.919,2.053,2.053v15.933
			c0,1.135-0.919,2.054-2.053,2.054h-7.38c-1.134,0-2.053,0.919-2.053,2.053v3.137c0,1.134,0.919,2.053,2.053,2.053h7.38
			c1.134,0,2.053,0.92,2.053,2.054v15.064c0,3.271-1.308,8.606-9.648,9.311c-1.078,0.091-1.921,0.965-1.921,2.047v3.125
			c0,1.196,1.018,2.157,2.209,2.055c8.1-0.692,16.604-5.292,16.604-16.537V76.088c0-1.134,0.919-2.054,2.053-2.054h6.557
			c1.135,0,2.054-0.919,2.054-2.053v-3.137c0-1.134-0.919-2.053-2.054-2.053h-6.557c-1.134,0-2.053-0.919-2.053-2.054V48.806
			c0-1.134,0.919-2.053,2.053-2.053h6.557c1.135,0,2.054-0.919,2.054-2.054v-3.137c0-1.134-0.919-2.053-2.054-2.053h-6.557
			c-1.134,0-2.053-0.919-2.053-2.053V26.458C252.402,25.323,251.483,24.404,250.349,24.404z"/>
		<path fill="#00A0FF" d="M266.688,105.142c0,1.134,0.919,2.053,2.053,2.053h23.138c10.239,0,18.569-7.939,18.569-17.7v-48.63
			c0-1.134-0.919-2.053-2.053-2.053H268.74c-1.134,0-2.053,0.919-2.053,2.053V105.142z M291.878,99.951h-15.895
			c-1.135,0-2.054-0.919-2.054-2.053v-21.81c0-1.135,0.919-2.054,2.054-2.054h25.167c1.134,0,2.053,0.919,2.053,2.054v13.405
			C303.204,95.261,298.123,99.951,291.878,99.951z M303.204,48.108v16.631c0,1.135-0.919,2.054-2.053,2.054h-25.167
			c-1.135,0-2.054-0.919-2.054-2.054V48.108c0-1.134,0.919-2.053,2.054-2.053h25.167C302.285,46.056,303.204,46.975,303.204,48.108z
			"/>
		<path fill="#00A0FF" d="M298.21,24.351h-20.439c-1.135,0-2.054,0.919-2.054,2.053v3.138c0,1.134,0.919,2.053,2.054,2.053h20.439
			c1.134,0,2.053-0.919,2.053-2.053v-3.138C300.263,25.27,299.344,24.351,298.21,24.351z"/>
		<path fill="#00A0FF" d="M376.342,27.536H333.77c-1.135,0-2.054,0.92-2.054,2.054v3.137c0,1.134,0.919,2.053,2.054,2.053h42.572
			c1.135,0,2.054-0.919,2.054-2.053V29.59C378.396,28.456,377.477,27.536,376.342,27.536z"/>
		<path fill="#00A0FF" d="M358.149,63.85h29.656c1.135,0,2.054-0.919,2.054-2.053v-3.138c0-1.134-0.919-2.053-2.054-2.053h-65.51
			c-1.134,0-2.053,0.919-2.053,2.053v3.138c0,1.134,0.919,2.053,2.053,2.053h20.274c1.638,0,2.617,1.824,1.711,3.188l-13.492,24.344
			c-0.363,0.545-0.632,1.08-0.821,1.633c-1.129,3.299-0.601,6.838,1.451,9.71c2.15,3.01,5.706,4.806,9.509,4.806h36.977
			c1.662,0,3.181-0.829,4.061-2.218c0.863-1.359,0.969-3.039,0.283-4.495l-8.586-16.643c-0.521-1.008-1.759-1.403-2.766-0.883
			l-2.788,1.438c-1.009,0.521-1.403,1.758-0.884,2.766l5.056,9.797c0.705,1.366-0.287,2.994-1.825,2.994h-29.528
			c-1.492,0-2.81-0.646-3.616-1.774c-0.366-0.512-0.898-1.53-0.589-2.798c0.052-0.212,0.157-0.413,0.278-0.597l16.396-28.72
			C354.455,64.807,356.238,63.85,358.149,63.85z"/>
	</g>
</g>
</svg>
