<?xml version="1.0" standalone="no"?>
<!DOCTYPE svg PUBLIC "-//W3C//DTD SVG 20010904//EN"
 "http://www.w3.org/TR/2001/REC-SVG-20010904/DTD/svg10.dtd">
<svg version="1.0" xmlns="http://www.w3.org/2000/svg"
 width="400.000000pt" height="400.000000pt" viewBox="0 0 400.000000 400.000000"
 preserveAspectRatio="xMidYMid meet">
<metadata>
Created by potrace 1.11, written by Peter Selinger 2001-2013
</metadata>
<g transform="translate(0.000000,400.000000) scale(0.100000,-0.100000)"
fill="#000000" stroke="none">
<path d="M3010 2965 l0 -1035 495 0 495 0 0 1035 0 1035 -495 0 -495 0 0
-1035z"/>
<path d="M0 965 l0 -965 253 1 c138 1 263 5 277 9 16 5 19 8 8 9 -17 1 -18 57
-18 946 l0 945 22 1 c19 1 17 3 -7 9 -16 4 -144 8 -282 9 l-253 1 0 -965z"/>
<path d="M535 960 c0 -487 1 -686 2 -443 2 244 2 642 0 885 -1 244 -2 45 -2
-442z"/>
<path d="M2016 52 c-2 -4 -1 -14 5 -22 7 -12 9 -10 9 8 0 23 -5 28 -14 14z"/>
</g>
</svg>
